<svg width="40" height="40" viewBox="0 0 40 40" fill="none" xmlns="http://www.w3.org/2000/svg">
<path d="M38.5 20C38.5 23.817 37.344 27.364 35.363 30.3101C32.0414 35.2499 26.4003 38.5 20 38.5C13.5997 38.5 7.9586 35.2499 4.63696 30.3101C2.65598 27.364 1.5 23.817 1.5 20C1.5 9.78273 9.78273 1.5 20 1.5C30.2173 1.5 38.5 9.78273 38.5 20Z" stroke="black" stroke-width="3"/>
<path d="M26.1667 16.6084C26.1667 20.1844 23.2677 23.0834 19.6917 23.0834C16.1156 23.0834 13.2167 20.1844 13.2167 16.6084C13.2167 13.0323 16.1156 10.1334 19.6917 10.1334C23.2677 10.1334 26.1667 13.0323 26.1667 16.6084Z" stroke="black" stroke-width="3"/>
<path d="M26.2261 26.1667H13.7739C10.0138 26.1667 6.83767 28.6426 5.81665 32.0382C9.24228 35.9939 14.3256 38.5 20 38.5C25.6743 38.5 30.7577 35.9939 34.1833 32.0382C33.1623 28.6426 29.9861 26.1667 26.2261 26.1667Z" stroke="black" stroke-width="3"/>
</svg>
